<svg xmlns="http://www.w3.org/2000/svg" width="24" height="24" viewBox="0 0 24 24" fill="none" stroke="url(#brGradient)" stroke-width="2" stroke-linecap="round" stroke-linejoin="round">
  <defs>
    <linearGradient id="brGradient" x1="0%" y1="100%" x2="100%" y2="0%">
      <stop offset="0%" stop-color="#1e3a8a" />
      <stop offset="50%" stop-color="#2563eb" />
      <stop offset="100%" stop-color="#10b981" />
    </linearGradient>
  </defs>
  <path d="M12 10a2 2 0 0 0-2 2c0 1.02-.1 2.51-.26 4"/>
  <path d="M14 13.12c0 2.38 0 6.38-1 8.88"/>
  <path d="M17.29 21.02c.12-.6.43-2.3.43-3.02"/>
  <path d="M2 12a10 10 0 0 1 18-6"/>
  <path d="M2 16h.01"/>
  <path d="M21.8 16c.2-2 .131-5.354 0-6"/>
  <path d="M5 19.5C5.5 18 6 15 6 12a6 6 0 0 1 .34-2"/>
  <path d="M8.65 22c.21-.66.45-1.32.57-2"/>
  <path d="M9 6.8a6 6 0 0 1 9 5.2c0 .47 0 1.17-.02 2"/>
</svg>
