<svg xmlns="http://www.w3.org/2000/svg" width="24" height="24" viewBox="0 0 24 24" fill="none" stroke="url(#brGradient)" stroke-width="2" stroke-linecap="round" stroke-linejoin="round">
  <defs>
    <linearGradient id="brGradient" x1="0%" y1="100%" x2="100%" y2="0%">
      <stop offset="0%" stop-color="#1e3a8a" />
      <stop offset="50%" stop-color="#2563eb" />
      <stop offset="100%" stop-color="#10b981" />
    </linearGradient>
  </defs>
  <path d="M6 18H4a2 2 0 0 1-2-2v-5a2 2 0 0 1 2-2h16a2 2 0 0 1 2 2v5a2 2 0 0 1-2 2h-2"/>
  <path d="M6 9V3a1 1 0 0 1 1-1h10a1 1 0 0 1 1 1v6"/>
  <rect x="6" y="14" width="12" height="8" rx="1"/>
</svg>
