<svg xmlns="http://www.w3.org/2000/svg" width="24" height="24" viewBox="0 0 24 24" fill="none" stroke="url(#brGradient)" stroke-width="2" stroke-linecap="round" stroke-linejoin="round">
  <defs>
    <linearGradient id="brGradient" x1="0%" y1="100%" x2="100%" y2="0%">
      <stop offset="0%" stop-color="#1e3a8a" />
      <stop offset="50%" stop-color="#2563eb" />
      <stop offset="100%" stop-color="#10b981" />
    </linearGradient>
  </defs>
  <path d="m6 14 1.45-2.9A2 2 0 0 1 9.24 10H20a2 2 0 0 1 1.94 2.5l-1.55 6a2 2 0 0 1-1.94 1.5H4a2 2 0 0 1-2-2V5c0-1.1.9-2 2-2h3.93a2 2 0 0 1 1.66.9l.82 1.2a2 2 0 0 0 1.66.9H18a2 2 0 0 1 2 2v2"/>
</svg>
